Coordinates
version=1
nRows=26
nColumns=22
inDegrees=yes

Units are S.I. units (second, meters, Newtons, ...)
If the header above contains a line with 'inDegrees', this indicates whether rotational values are in degrees (yes) or radians (no).

endheader
time	pelvis_tilt	pelvis_list	pelvis_rotation	pelvis_tx	pelvis_ty	pelvis_tz	hip_flexion_r	hip_adduction_r	hip_rotation_r	knee_angle_r	ankle_angle_r	subtalar_angle_r	hip_flexion_l	hip_adduction_l	hip_rotation_l	knee_angle_l	ankle_angle_l	subtalar_angle_l	lumbar_extension	lumbar_bending	lumbar_rotation
      3.73000000	      0.80173747	     -2.57310475	    -83.56006394	      0.34175416	      0.99030043	      0.67247697	    -12.58249519	     -1.68080339	      2.89133865	    -31.18368639	      4.37076509	      8.86202003	     19.10983804	     -2.57405124	      4.75243810	    -15.43814043	      1.69603033	      6.16692902	     -1.78545887	     -4.23077032	      6.54002726
      3.74000000	      1.02344716	     -2.61274552	    -84.05824230	      0.34612092	      0.99197383	      0.68144827	    -12.02510186	     -2.34679252	      2.47516378	    -32.73743660	      2.44495751	      9.20551055	     18.62959787	     -2.31531278	      3.91631485	    -15.84447413	      1.36189266	      5.92838682	     -1.73725438	     -4.54623927	      6.59009845
      3.75000000	      1.24815258	     -2.65400626	    -84.53217574	      0.35051094	      0.99361266	      0.69017733	    -11.36054018	     -3.02823088	      1.97956984	    -34.40636649	      0.57094353	      9.41609747	     18.08969169	     -2.04616296	      3.06360982	    -16.10158287	      1.11885268	      5.68532787	     -1.71622164	     -4.84694463	      6.60936330
      3.76000000	      1.48420524	     -2.69217552	    -84.97722211	      0.35492621	      0.99518451	      0.69864220	    -10.59131501	     -3.73268633	      1.42324641	    -36.17966937	     -1.16590994	      9.49921337	     17.50364515	     -1.74612136	      2.23682497	    -16.22497183	      0.96439275	      5.42606838	     -1.72132001	     -5.14402335	      6.58738992
      3.77000000	      1.74037111	     -2.72427984	    -85.38918163	      0.35936933	      0.99666048	      0.70684229	     -9.72904281	     -4.46802823	      0.82543502	    -38.03374713	     -2.69205131	      9.45905266	     16.88812886	     -1.39794374	      1.46435701	    -16.24085654	      0.89645677	      5.12974122	     -1.75131319	     -5.44751418	      6.51368623
      3.78000000	      2.00914186	     -2.75652443	    -85.75239973	      0.36384086	      0.99803560	      0.71478372	     -8.80139676	     -5.21681188	      0.19824888	    -39.93182311	     -3.95523945	      9.24303036	     16.25768667	     -1.00251578	      0.77651076	    -16.18634645	      0.93509474	      4.72220869	     -1.81472864	     -5.75079236	      6.36338273
      3.79000000	      2.30234155	     -2.77228543	    -86.10473990	      0.36823215	      0.99932533	      0.72245326	     -7.79130797	     -5.97609862	     -0.33764062	    -41.85651389	     -4.89266572	      9.14313105	     15.61841733	     -0.55830831	      0.19304860	    -16.04354321	      0.98809617	      4.48861372	     -1.88969272	     -6.07727180	      6.18882995
      3.80000000	      2.61259487	     -2.78665255	    -86.41769475	      0.37258698	      1.00052195	      0.72987758	     -6.74134028	     -6.73450630	     -0.83910953	    -43.76319468	     -5.46819164	      8.91474947	     14.98733706	     -0.06876305	     -0.30380274	    -15.87258771	      1.11355156	      4.18570063	     -1.99229266	     -6.41525986	      5.95151881
      3.81000000	      2.91885011	     -2.80198119	    -86.70210524	      0.37683921	      1.00165837	      0.73706503	     -5.66456713	     -7.45310018	     -1.26381915	    -45.61241178	     -5.70050988	      8.60512159	     14.36696943	      0.43510845	     -0.70758566	    -15.68292388	      1.27729976	      3.87446677	     -2.11967930	     -6.74781858	      5.67320248
      3.82000000	      3.20895777	     -2.81852617	    -86.96586674	      0.38097257	      1.00276237	      0.74402119	     -4.57436131	     -8.11048449	     -1.59745086	    -47.36167677	     -5.61226351	      8.22896719	     13.76306905	      0.93442049	     -1.03395865	    -15.48648058	      1.47063303	      3.58934995	     -2.26813071	     -7.05816050	      5.36409301
      3.83000000	      3.47186228	     -2.83334838	    -87.21745328	      0.38492956	      1.00384138	      0.75074596	     -3.47029437	     -8.68685613	     -1.83986863	    -48.99054603	     -5.23842423	      7.76003183	     13.18304715	      1.40836144	     -1.30316088	    -15.29078465	      1.66938297	      3.33023474	     -2.43023851	     -7.34394899	      5.04248789
      3.84000000	      3.67311870	     -2.83718368	    -87.46151609	      0.38868637	      1.00489931	      0.75723411	     -2.34954531	     -9.13699771	     -2.00192062	    -50.46320492	     -4.68799982	      7.02860710	     12.64327267	      1.81794613	     -1.50296771	    -15.10881365	      1.88164501	      3.01938101	     -2.59090668	     -7.56815861	      4.72850371
      3.85000000	      3.85281936	     -2.85282622	    -87.71354413	      0.39223201	      1.00599635	      0.76352179	     -1.25187775	     -9.50858705	     -2.07405755	    -51.75536933	     -3.88178931	      6.49994784	     12.10813358	      2.19233460	     -1.73585490	    -14.92375361	      2.06658093	      2.89333340	     -2.77098279	     -7.77175803	      4.41066136
      3.86000000	      3.95224127	     -2.82969842	    -87.98239079	      0.39553185	      1.00705148	      0.76956859	     -0.11260146	     -9.73297150	     -2.07787252	    -52.85773150	     -3.02585942	      5.66426042	     11.63208804	      2.47654119	     -1.90165898	    -14.73552070	      2.26071483	      2.71738216	     -2.90845967	     -7.89734618	      4.14991638
      3.87000000	      3.98736948	     -2.81009059	    -88.25472539	      0.39862239	      1.00813498	      0.77541441	      0.99265197	     -9.83768748	     -2.05355463	    -53.73488677	     -2.04915497	      4.87538400	     11.17616765	      2.67882814	     -2.10991370	    -14.55737296	      2.44152490	      2.59278363	     -3.05339973	     -7.95431020	      3.89294605
      3.88000000	      3.96665765	     -2.77236296	    -88.54146576	      0.40149698	      1.00920882	      0.78104746	      2.09095302	     -9.83681261	     -2.00280646	    -54.39297453	     -1.03406537	      4.10082787	     10.75448053	      2.81044250	     -2.33224803	    -14.37502440	      2.60528416	      2.48898406	     -3.17924909	     -7.95535211	      3.66982935
      3.89000000	      3.89248841	     -2.71559195	    -88.83594491	      0.40417920	      1.01026213	      0.78648057	      3.17016253	     -9.74377547	     -1.95850097	    -54.81995052	     -0.00602440	      3.35995800	     10.36387556	      2.87535658	     -2.57182949	    -14.18405006	      2.75468013	      2.39328853	     -3.28488148	     -7.90214829	      3.47358028
      3.90000000	      3.77470628	     -2.64151210	    -89.13222092	      0.40669776	      1.01128629	      0.79172087	      4.21899152	     -9.58023566	     -1.94326440	    -55.01467777	      1.02091010	      2.68393376	      9.99834582	      2.88694507	     -2.81317688	    -13.97980237	      2.88701520	      2.29964130	     -3.37422261	     -7.80398290	      3.29955859
      3.91000000	      3.62711597	     -2.55256103	    -89.42144165	      0.40909273	      1.01227228	      0.79677676	      5.22692215	     -9.37362107	     -1.97830204	    -54.97978189	      2.03377089	      2.10053658	      9.64929593	      2.86327520	     -3.04565543	    -13.75352912	      2.99799832	      2.20446400	     -3.45343321	     -7.67264633	      3.13909774
      3.92000000	      3.46906761	     -2.46323248	    -89.69410116	      0.41139197	      1.01321742	      0.80166943	      6.16660140	     -9.15776698	     -2.08420674	    -54.71806513	      3.04986539	      1.66039622	      9.30755079	      2.82496659	     -3.29369856	    -13.52002094	      3.11011002	      2.11069053	     -3.53990300	     -7.52951795	      2.96896530
      3.93000000	      3.29775833	     -2.35659760	    -89.94833654	      0.41361030	      1.01410512	      0.80643128	      7.05126224	     -8.94001665	     -2.28115293	    -54.23339717	      4.02937096	      1.28385359	      8.96879009	      2.77447831	     -3.50129306	    -13.24162582	      3.18757221	      2.00375572	     -3.60619067	     -7.37267079	      2.81240972
      3.94000000	      3.12529535	     -2.26636635	    -90.17986331	      0.41576696	      1.01497378	      0.81105477	      7.84097123	     -8.73572216	     -2.55768461	    -53.53848130	      4.99697748	      1.09993609	      8.59732185	      2.72519858	     -3.66823994	    -12.91819499	      3.22241415	      1.94513910	     -3.69782979	     -7.21245159	      2.64497025
      3.95000000	      2.96372205	     -2.16323011	    -90.39173475	      0.41785658	      1.01575782	      0.81557799	      8.56428147	     -8.56294890	     -2.91986021	    -52.64595045	      5.94009528	      0.95138480	      8.24129829	      2.68521681	     -3.85511594	    -12.58635755	      3.26900507	      1.87265357	     -3.77178821	     -7.06658792	      2.46948629
      3.96000000	      2.80465571	     -2.08768870	    -90.53919125	      0.41996646	      1.01650789	      0.82001231	      9.15571879	     -8.42399876	     -3.42205258	    -51.55368852	      6.85444485	      0.75885847	      7.86164596	      2.65672594	     -3.99208530	    -12.25532403	      3.36314948	      1.65832534	     -3.88257616	     -6.91900067	      2.23598364
      3.97000000	      2.64892811	     -2.02109515	    -90.67431172	      0.42198685	      1.01722425	      0.82434729	      9.65987657	     -8.29340522	     -3.95908536	    -50.29744866	      7.74313728	      0.71011338	      7.45212291	      2.63010421	     -4.11023606	    -11.87173168	      3.39978922	      1.51272610	     -4.00047632	     -6.77938400	      2.01481923
      3.98000000	      2.49243696	     -1.97165465	    -90.77834437	      0.42394489	      1.01790860	      0.82861156	     10.05824898	     -8.16731416	     -4.54897678	    -48.88779002	      8.58960414	      0.73316407	      7.01811450	      2.60323605	     -4.20119151	    -11.46770177	      3.43933906	      1.36649719	     -4.13034015	     -6.64244127	      1.77444966
